<svg xmlns="http://www.w3.org/2000/svg" viewBox="0 0 800 450" role="img" aria-label="ML Pipeline Template">
  <defs>
    <linearGradient id="mlp-bg" x1="0%" y1="0%" x2="100%" y2="100%">
      <stop offset="0%" stop-color="#0f172a"/>
      <stop offset="100%" stop-color="#1e1b4b"/>
    </linearGradient>
    <linearGradient id="mlp-flow" x1="0%" y1="0%" x2="100%" y2="0%">
      <stop offset="0%" stop-color="#38bdf8"/>
      <stop offset="50%" stop-color="#818cf8"/>
      <stop offset="100%" stop-color="#c084fc"/>
    </linearGradient>
    <filter id="mlp-glow" x="-20%" y="-20%" width="140%" height="140%">
      <feGaussianBlur stdDeviation="12" result="blur"/>
      <feMerge>
        <feMergeNode in="blur"/>
        <feMergeNode in="SourceGraphic"/>
      </feMerge>
    </filter>
  </defs>
  <rect width="800" height="450" fill="url(#mlp-bg)"/>
  <circle cx="120" cy="80" r="100" fill="#38bdf8" opacity="0.12"/>
  <circle cx="680" cy="360" r="90" fill="#c084fc" opacity="0.14"/>

  <!-- Pipeline nodes -->
  <g filter="url(#mlp-glow)">
    <rect x="80" y="155" width="130" height="90" rx="16" fill="#243049" stroke="#38bdf8" stroke-width="3"/>
    <rect x="240" y="155" width="130" height="90" rx="16" fill="#243049" stroke="#818cf8" stroke-width="3"/>
    <rect x="400" y="155" width="130" height="90" rx="16" fill="#243049" stroke="#a78bfa" stroke-width="3"/>
    <rect x="560" y="155" width="130" height="90" rx="16" fill="#243049" stroke="#c084fc" stroke-width="3"/>
  </g>

  <!-- Icons in nodes -->
  <rect x="115" y="178" width="60" height="44" rx="8" fill="#38bdf8" opacity="0.25"/>
  <path d="M125 200 H165 M125 210 H155" stroke="#38bdf8" stroke-width="4" stroke-linecap="round"/>
  <circle cx="305" cy="200" r="22" fill="#818cf8" opacity="0.35"/>
  <path d="M295 200 L305 188 L315 200 L305 212 Z" fill="#818cf8"/>
  <path d="M430 188 L470 212 L430 212 Z" fill="#a78bfa" opacity="0.5"/>
  <rect x="430" y="188" width="40" height="24" rx="4" fill="#a78bfa" opacity="0.35"/>
  <circle cx="625" cy="200" r="20" fill="#22c55e" opacity="0.85"/>
  <path d="M615 200 L622 207 L635 193" fill="none" stroke="#0f172a" stroke-width="3" stroke-linecap="round"/>

  <text x="145" y="248" text-anchor="middle" fill="#e2e8f0" font-family="Inter, Arial, sans-serif" font-size="14" font-weight="700">Data</text>
  <text x="305" y="248" text-anchor="middle" fill="#e2e8f0" font-family="Inter, Arial, sans-serif" font-size="14" font-weight="700">Train</text>
  <text x="465" y="248" text-anchor="middle" fill="#e2e8f0" font-family="Inter, Arial, sans-serif" font-size="14" font-weight="700">Eval</text>
  <text x="625" y="248" text-anchor="middle" fill="#e2e8f0" font-family="Inter, Arial, sans-serif" font-size="14" font-weight="700">Deploy</text>

  <!-- Flow arrows -->
  <path d="M210 200 H240" stroke="url(#mlp-flow)" stroke-width="5"/>
  <polygon points="240,200 228,194 228,206" fill="#818cf8"/>
  <path d="M370 200 H400" stroke="url(#mlp-flow)" stroke-width="5"/>
  <polygon points="400,200 388,194 388,206" fill="#a78bfa"/>
  <path d="M530 200 H560" stroke="url(#mlp-flow)" stroke-width="5"/>
  <polygon points="560,200 548,194 548,206" fill="#c084fc"/>

  <!-- Python badge -->
  <rect x="330" y="285" width="140" height="36" rx="18" fill="#3776ab" opacity="0.9"/>
  <text x="400" y="308" text-anchor="middle" fill="#ffd43b" font-family="Inter, Arial, sans-serif" font-size="15" font-weight="800">Python</text>

  <text x="400" y="365" text-anchor="middle" fill="#f1f5f9" font-family="Inter, Arial, sans-serif" font-size="26" font-weight="700">ML Pipeline Template</text>
  <text x="400" y="395" text-anchor="middle" fill="#94a3b8" font-family="Inter, Arial, sans-serif" font-size="15">Reusable / Modular / Open Source</text>
</svg>
