<svg xmlns="http://www.w3.org/2000/svg" viewBox="0 0 800 450" role="img" aria-label="Production RAG System">
  <defs>
    <linearGradient id="bg2" x1="0%" y1="0%" x2="100%" y2="100%">
      <stop offset="0%" stop-color="#0c1222"/>
      <stop offset="100%" stop-color="#162032"/>
    </linearGradient>
    <linearGradient id="accent2" x1="0%" y1="100%" x2="100%" y2="0%">
      <stop offset="0%" stop-color="#0ea5e9"/>
      <stop offset="100%" stop-color="#22d3ee"/>
    </linearGradient>
  </defs>
  <rect width="800" height="450" fill="url(#bg2)"/>
  <ellipse cx="400" cy="225" rx="280" ry="140" fill="#0ea5e9" opacity="0.06"/>
  <circle cx="180" cy="225" r="55" fill="#1e293b" stroke="#38bdf8" stroke-width="2"/>
  <text x="180" y="232" text-anchor="middle" fill="#38bdf8" font-family="Inter, Arial, sans-serif" font-size="18" font-weight="600">Query</text>
  <rect x="290" y="175" width="220" height="100" rx="16" fill="#1a2234" stroke="url(#accent2)" stroke-width="2"/>
  <path d="M320 210 H480 M320 235 H450 M320 260 H470" stroke="#475569" stroke-width="6" stroke-linecap="round"/>
  <circle cx="400" cy="225" r="18" fill="#0ea5e9" opacity="0.35"/>
  <circle cx="620" cy="225" r="55" fill="#1e293b" stroke="#22d3ee" stroke-width="2"/>
  <text x="620" y="220" text-anchor="middle" fill="#22d3ee" font-family="Inter, Arial, sans-serif" font-size="16" font-weight="700">97%</text>
  <text x="620" y="242" text-anchor="middle" fill="#94a3b8" font-family="Inter, Arial, sans-serif" font-size="12">Hit Rate</text>
  <path d="M235 225 H285" stroke="#38bdf8" stroke-width="3" marker-end="url(#none)"/>
  <path d="M510 225 H565" stroke="#22d3ee" stroke-width="3"/>
  <polygon points="565,225 555,220 555,230" fill="#22d3ee"/>
  <polygon points="285,225 275,220 275,230" fill="#38bdf8"/>
  <text x="400" y="360" text-anchor="middle" fill="#e2e8f0" font-family="Inter, Arial, sans-serif" font-size="24" font-weight="700">Hybrid-Search RAG</text>
  <text x="400" y="390" text-anchor="middle" fill="#64748b" font-family="Inter, Arial, sans-serif" font-size="15">Retrieval / Indexing / APIs</text>
</svg>
